<svg xmlns="http://www.w3.org/2000/svg" xmlns:vectornator="http://vectornator.io" xml:space="preserve" stroke-miterlimit="10" style="fill-rule:nonzero;clip-rule:evenodd;stroke-linecap:round;stroke-linejoin:round" viewBox="0 0 768 768"><path fill="none" d="M0 0h768v768H0V0Z"/><g vectornator:layerName="Layer 1"><path vectornator:layerName="path" fill="#150b14" d="M564.562 256.481a85.772 85.772 0 0 0-20.478 2.141c-.484.106-.887.264-1.344.343-7.793 7.584-16.501 15.168-25.799 22.619a147.209 147.209 0 0 0 15.318 40.429c13.652 24.072 24.913 36.94 31.497 53.64 6.611 16.7 7.767 36.359 1.612 72.137-7.578 44.392-35.044 91.401-78.607 126.095 33.808-9.697 62.617-27.586 81.698-49.28 20.613-23.386 27.493-36.624 29.884-49.942 2.419-13.344.162-27.956 1.102-52.768a139.876 139.876 0 0 1 8.493-42.252l1.075-2.959 3.144-.397c28.191-3.593 53.668-10.675 66.837-19.025-4.247-18.682-22.199-33.215-46.009-44.233l-2.258-1.057-.564-2.379c-7.552-31.867-32.868-52.424-65.601-53.112Zm16.394 39.372a16.522 16.522 0 0 1 4.945.74c8.699 2.735 13.452 12.012 10.615 20.716-2.818 8.707-12.156 13.557-20.855 10.834-8.699-2.735-13.453-12.012-10.615-20.716 2.235-6.885 8.677-11.571 15.91-11.574Zm-152.54-121.497c-20.451-.132-41.44 7.927-59.473 25.103-23.676 22.619-31.04 42.965-26.874 68.358l1.129 6.976-7.068-1.136c-52.029-8.297-116.42-4.096-189.68 25.023 21.553 9.09 61.059 24.231 104.918 44.921l13.921 6.606-15.131 3.012c-57.914 11.521-126.632 44.868-189.41 117.639 28.083-2.14 85.46-8.799 145.336-8.693 33.271.053 66.058 2.325 92.771 9.116 26.713 6.818 51.007 22.408 54.42 33.823 3.414 11.415 1.479 17.44-1.881 26.371-3.386 8.931-13.733 22.487-28.084 31.444-14.324 8.984-32.518 16.806-51.437 23.465-37.786 13.291-78.017 21.799-95.781 23.438-3.762.343-5.267 1.664-6.718 4.254a25.233 25.233 0 0 0-2.392 10.966c-.161 5.681.752 8.667 2.392 10.913 1.612 2.272 4.192 3.171 6.826 3.356 111.609 7.398 195.054-20.188 255.656-43.838 69.713-31.418 113.76-93.487 123.327-149.347 5.993-35.012 4.703-52.161-1.075-66.773-5.778-14.613-16.85-27.587-30.906-52.373a160.325 160.325 0 0 1-17.199-46.109l-.645-3.065 2.472-1.956c25.827-20.346 46.869-42.569 54.502-58.767-15.668-16.382-42.731-19.844-73.045-16.647l-2.472.265-1.774-1.771c-16.125-16.171-36.173-24.468-56.625-24.574Zm9.057 37.813c8.975-.075 16.807 5.969 18.866 14.559a18.49 18.49 0 0 1-2.121 14.232c-2.602 4.278-6.828 7.362-11.746 8.572-10.278 2.34-20.54-3.953-22.924-14.057a18.537 18.537 0 0 1 3.304-15.861c3.48-4.525 8.854-7.262 14.621-7.445Zm178.93 175.718h-.161a124.927 124.927 0 0 0-6.45 34.351c-.914 23.993 1.559 38.606-1.263 54.169-2.795 15.538-11.099 30.837-32.25 54.83-25.127 28.564-64.982 50.681-111.045 58.133a240.017 240.017 0 0 1-27.116 14.718c35.824 13.264 73.313 14.004 103.01 4.386 52.351-16.885 48.293-29.013 71.754-64.342 7.391-11.125 15.91-19.633 24.456-26.609 24.429 10.464 48.455 17.176 63.424 15.511 8.062-18.338-.161-39.636-13.867-59.771 11.233-34.351-5.832-68.702-43.618-80.857a82.814 82.814 0 0 0-26.874-4.519Zm28.353 50.444c4.209-.09 8.214 1.628 10.964 4.703 5.202 5.822 4.528 14.766-1.505 19.977-6.033 5.211-15.143 4.714-20.344-1.11-5.208-5.815-4.547-14.759 1.478-19.977a14.85 14.85 0 0 1 9.407-3.593ZM410.545 591.14l1.344.74 1.343-.529a43.86 43.86 0 0 1-2.687-.211Z"/><path vectornator:layerName="path" fill="#fff" fill-rule="evenodd" stroke="#150b14" stroke-linecap="butt" stroke-width="20" d="m149.919 118.308 15.799-7.153h57.954l14.399 20.115-38.502 43.757h31.348l12.648 21.654-125.21 93.315-28.197-14.857 36.993-49.015h-21.489l-15.799-18.395 60.056-89.421Zm6.453 95.042-50.665 67.766 125.21-93.315h-65.199l57.954-63.871h-57.954l-60.056 89.42h50.71Z"/><path fill="#fff" d="M108.381 275.227c9.762-9.327 19.261-18.952 30.119-27.048 4.94-3.684 10.786-5.871 15.453-9.926 5.105-4.437 9.746-9.399 15.017-13.646"/><path fill="#150b14" d="M168.969 224.594a175.366 175.366 0 0 0-7.969 6.344c-2.572 2.16-5.076 4.41-7.781 6.406-4.971 3.667-10.912 5.648-16.094 8.968-4.338 2.78-8.567 5.805-12.656 8.938-1.362 1.044-2.629 2.178-3.969 3.25-1.775 1.42-3.54 2.845-5.25 4.344-3.391 2.972-6.713 6.041-10.031 9.094a4.553 4.553 0 0 0 6.312 6.562c3.958-3.977 7.957-7.925 11.781-12.031 3.786-4.065 7.598-8.137 11.626-11.969 2.3-2.189 4.653-4.404 7.218-6.281 3.315-2.425 6.959-4.382 10.156-6.969 3.03-2.451 5.651-5.387 8.313-8.219 2.708-2.88 5.466-5.726 8.344-8.437Z"/><path fill="#fff" d="M118.658 265.13c13.583-3.397 20.51-15.581 30.229-24.345"/><path fill="#150b14" d="M148.875 240.781c-1.772 1.327-3.52 2.673-5.219 4.094-4.154 3.476-8.106 7.262-12.687 10.187-4.092 2.614-8.707 4.639-13.469 5.657-2.429.644-3.894 3.133-3.25 5.562.644 2.429 3.134 3.894 5.562 3.25 2.746-.851 5.415-1.956 7.813-3.562 4.129-2.767 7.313-6.699 10.281-10.625 3.669-4.853 7.054-9.897 10.969-14.563Z"/><path fill="#e7e7e7" d="M107.504 279.123h-2.475"/><path fill="#150b14" d="M107.5 274.562c-1.238 2.276-1.333 2.538-1.219 2.282.161-.361.6-1.439.407-1.094-.33.588-.61 1.212-.844 1.844-.098.263-.813 1.531-.813 1.531s1.411 2.642 1.25 2.281c-.114-.256-.535-1.013-.437-.75.234.632.514 1.256.844 1.844.193.345-.013.023.812 1.188a4.571 4.571 0 0 0 4.562-4.563 4.572 4.572 0 0 0-4.562-4.563Z"/><path fill="#fff" d="M117.657 269.914c6.087-2.334 10.844-7.303 15.739-11.608 4.329-3.807 6.1-9.794 10.127-13.823 3.862-3.864 9.461-5.911 14.335-8.093"/><path fill="#150b14" d="M157.844 236.375c-5.072 1.743-10.472 3.241-14.75 6.625-3.679 2.91-5.954 7.098-9.032 10.562-1.575 1.774-3.633 2.887-5.5 4.313-3.904 2.983-7.92 6.127-12.593 7.813-2.331.94-3.472 3.607-2.531 5.937.94 2.33 3.607 3.44 5.937 2.5 3.41-1.498 6.441-3.538 9.187-6.063 1.284-1.18 2.392-2.492 3.594-3.75 2.091-2.186 4.225-4.395 5.844-6.968 2.51-3.991 3.788-8.757 6.938-12.344 3.435-3.913 8.423-6.171 12.906-8.625Z"/><path fill="#fff" d="M102.242 213.121c6.993-.991 12.911-5.278 18.853-8.918 4.722-2.892 10.148-4.941 14.497-8.405 2.934-2.337 5.417-5.432 7.952-8.175"/><path fill="#150b14" d="M143.531 187.625c-2.742 2.513-5.409 5.364-8.593 7.344-4.778 2.97-10.198 4.506-15.282 6.843-1.612.742-3.273 1.457-4.875 2.219-4.223 2.011-8.553 4.033-13.25 4.594a4.562 4.562 0 0 0-3.781 5.219 4.562 4.562 0 0 0 5.219 3.781c3.871-.754 7.737-2.176 11-4.437 1.501-1.041 3.055-2.101 4.5-3.219 1.747-1.353 3.348-2.869 5.125-4.188 4.189-3.109 8.759-5.613 12.625-9.156 2.845-2.607 5.011-5.939 7.312-9Z"/><path fill="#fff" d="M121.989 216.444c15.591 0 26.646-13.68 38.326-22.214"/><path fill="#150b14" d="M160.312 194.219c-11.936 7.361-23.504 18.073-38.406 17.687a4.546 4.546 0 0 0-4.468 4.625 4.545 4.545 0 0 0 4.624 4.469c2.905-.155 5.748-.595 8.5-1.562 1.666-.585 3.154-1.429 4.688-2.282 3.809-2.118 7.076-5.027 10.219-8.031 5.07-4.846 9.723-10.108 14.843-14.906Z"/><path fill="#fff" d="M138.79 224.228c6.015-1.757 12.179-2.991 18.154-4.876 8.02-2.528 15.629-9.501 22.459-14.268"/><path fill="#150b14" d="M179.406 205.094c-6.364 3.654-12.485 8.177-19.5 10.531-2.748.923-5.56 1.171-8.406 1.625-.508.081-.992.231-1.5.312-1.546.25-3.111.355-4.656.626-2.616.457-5.2 1.04-7.782 1.656a4.536 4.536 0 0 0-3.156 5.594c.676 2.42 3.174 3.863 5.594 3.187 2.948-.946 5.972-1.8 8.875-2.875.998-.37 1.969-.792 2.969-1.156 3.112-1.136 6.227-2.442 9.094-4.125 6.93-4.07 12.473-10.115 18.468-15.375Z"/><path fill="#fff" d="M142.62 196.014c.021-5.774 2.476-11.327 4.569-16.709 4.843-12.458 13.987-21.73 23.431-30.716 3.25-3.092 8.524-5.309 10.988-9.077 2.533-3.875-3.625-10.082-7.2-11.045-.843-.227-1.715-.339-2.583-.428-.724-.075-2.488-.726-2.182-.065.318.687 1.503.203 2.26.231 2.857.106 5.629-.09 8.468-.268 6.176-.388 12.441-.669 18.63-.376 3.938.187 7.758.823 11.714.823"/><path fill="#150b14" d="M191.219 116.875c-2.775.051-5.545.158-8.313.313-3.098.173-6.206.492-9.312.5h-.188c-.106-.013-.206-.052-.312-.063-.123-.013.221.012.344.031-.092-.022-.166-.05-.219-.062a19.135 19.135 0 0 0-1.031-.219c-.85-.145-1.392-.211-2.313-.219-1.512-.013-2.976.55-4.437.938-.315.083-.932.478-1.126.594a10.687 10.687 0 0 0-3.5 3.406c-.191.297-.362.595-.531.906-.091.168-.234.341-.25.531-.19 2.344-.612 4.68-.593 7.031.005.642.355 1.246.656 1.813.504.951 1.034 1.885 1.75 2.687.745.836 1.654 1.548 2.594 2.157.748.485 1.594.8 2.437 1.093l.094.032c-.259.19-.527.367-.781.562-2.248 1.726-4.243 3.758-6.25 5.75a175.13 175.13 0 0 0-5.969 6.219c-4.931 5.402-9.459 11.216-12.907 17.687-1.682 3.159-3.013 6.453-4.312 9.782-2.203 5.644-4.06 11.365-4.188 17.468-.11 5.552 4.293 10.14 9.844 10.25 5.552.111 10.171-4.292 10.282-9.843.075-4.149 1.846-8.08 3.343-11.875 1.174-2.974 2.476-5.836 4.157-8.563 4.637-7.528 11.087-13.749 17.5-19.75 1.388-1.299 3.139-2.202 4.687-3.281 3.821-2.664 7.734-5.955 9.375-10.469.506-1.391.686-2.772.75-4.156 1.993-.017 3.979-.071 5.969.031 4.01.207 7.98.741 12 .844 5.863.135 10.739-4.512 10.875-10.375.135-5.863-4.512-10.708-10.375-10.844-3.825-.076-7.619-.625-11.438-.812-2.77-.136-5.537-.145-8.312-.094Z"/><path fill="#fff" d="M217.474 126.854c-16.963 15.111-32.362 31.604-46.433 49.432"/><path fill="#150b14" d="M217.969 116.812c-2.57-.13-5.19.733-7.25 2.594-10.054 9.054-19.84 18.405-29.094 28.282-6.611 7.056-12.811 14.441-18.875 21.968-3.663 4.58-2.924 11.275 1.656 14.938 4.58 3.663 11.275 2.892 14.938-1.688 9.144-11.515 18.691-22.728 28.906-33.312 5.123-5.309 10.506-10.328 15.969-15.282a10.038 10.038 0 0 0 .719-14.187 10.08 10.08 0 0 0-6.969-3.313Z"/><path fill="#fff" d="M172.292 134.649c-7.465 4.564-10.736 11.334-16.038 17.896-3.901 4.827-8.883 8.922-12.383 14.072-5.444 8.013-10.208 16.571-14.873 25.063"/><path fill="#150b14" d="M170.625 124.719a9.99 9.99 0 0 0-3.719 1.437c-4.089 2.604-7.588 5.848-10.656 9.594-2.756 3.365-5.108 7.045-7.906 10.375-3.378 4.02-7.389 7.433-10.719 11.5-2.45 2.992-4.581 6.274-6.656 9.531-4.021 6.311-7.648 12.868-11.281 19.406-2.832 5.136-.949 11.575 4.187 14.407 5.136 2.832 11.606.979 14.437-4.157 3.225-5.893 6.475-11.773 9.938-17.531 1.763-2.932 3.502-5.943 5.594-8.656 3.165-4.105 7.083-7.596 10.312-11.656 4.309-5.418 7.556-12.042 13.532-15.844 4.684-2.982 6.075-9.191 3.093-13.875a10.068 10.068 0 0 0-10.156-4.531Z"/><path fill="#fff" d="M113.878 211.328c4.102-4.362 7.957-8.955 12.242-13.139"/><path fill="#150b14" d="M126.094 187.562a10.58 10.58 0 0 0-7.5 3.126c-1.473 1.519-2.935 3.048-4.313 4.656-2.609 3.044-5.073 6.194-7.781 9.156-3.773 4.074-3.542 10.445.531 14.219 4.074 3.773 10.446 3.511 14.219-.563 4.013-4.276 8.215-8.368 12.406-12.468 4.138-4.157 4.126-10.894-.031-15.032a10.622 10.622 0 0 0-7.531-3.094Z"/><path fill="#fff" d="M122.678 209.419c10.277-2.936 22.336-1.716 33.028-1.716"/><path fill="#150b14" d="M155.781 197.094c-11.972-.009-24.04-.537-35.719 2.625-5.362 1.439-8.533 6.949-7.093 12.312 1.439 5.363 6.949 8.533 12.312 7.094 5.858-1.555 11.835-1.432 17.844-1.187 4.168.169 8.329.312 12.5.374 5.865.047 10.641-4.666 10.687-10.531.047-5.865-4.666-10.641-10.531-10.687Z"/><path fill="#fff" d="M164.545 172.275c0 7.528.191 15.083 0 22.609-.024.947-.685 6.727-1.625 6.924-4.49.945-11.498-11.363-9.47-15.024 1.977-3.569 8.845-3.193 11.968-1.777 3.237 1.467 5.182 4.871 7.953 6.937 4.223 3.147 10.704 2.545 15.637 1.898 6.711-.881 13.042-3.106 19.824-3.377 2.406-.097 4.333.037 6.691.312.741.086 1.496-.021 2.237.063.689.078 2.531-.066 2.037.421-1.237 1.219-3.096 1.588-4.714 2.218-2.47.961-5.025 1.688-7.531 2.549-6.726 2.31-13.293 4.724-19.721 7.765-14.991 7.092-26.834 18.339-38.414 30.038-4.18 4.223-8.826 8.229-12.537 12.865-1.728 2.159-2.668 4.132-3.902 6.542-.309.605-1.713 1.884-1.047 1.749 2.077-.421 3.319-2.636 4.977-3.956 4.261-3.393 8.596-6.742 13.089-9.823 5.911-4.051 13.025-6.787 18.555-11.337 6.311-5.192 11.793-11.484 18.63-16.091 4.626-3.117 9.754-5.54 13.991-9.208"/><path fill="#150b14" d="M164.5 162.219c-5.553.019-10.019 4.541-10 10.093.002.782-.004 1.563 0 2.344-4.978 1.328-9.306 4.482-10.906 9.75-.889 2.925-.65 6.082.125 9a28.756 28.756 0 0 0 2.031 5.344c2.601 5.26 6.896 10.579 12.719 12.406-1.962 1.666-3.986 3.257-5.875 5-3.966 3.659-7.781 7.497-11.625 11.282-5.265 5.183-11.138 10.09-14.969 16.5-.644 1.077-1.205 2.197-1.781 3.312-.07.136-.143.273-.219.406-.171.218-.361.432-.5.625-.39.544-.821 1.064-1.062 1.688-.387.999-.718 2.048-1.063 3.062-.05.148-.045.282-.063.438-.035.312-.081.623-.093.937-.05 1.239.091 2.504.469 3.688.487 1.528 1.308 2.817 2.343 4.031.159.186.327.328.5.5-.006.007.024.025.031.031.012.01.021.022.032.032.211.185.398.395.625.562.438.323.904.633 1.375.906 1.51.877 3.23 1.322 4.968 1.375 3.167.097 6.291-1.275 8.75-3.187.964-.75 1.815-1.621 2.657-2.5.266-.279.408-.496.687-.719 3.698-2.95 7.488-5.762 11.344-8.5 5.269-3.741 11.32-6.235 16.656-9.875 6.865-4.683 12.228-11.096 18.75-16.188 3.802-2.967 8.105-5.143 12.125-7.781 1.839-1.206 3.564-2.535 5.281-3.906 2.362-1.887 3.631-4.584 3.876-7.375 2.32-.783 4.643-1.549 6.937-2.406 1.158-.433 2.336-.813 3.469-1.313 2.794-1.233 5.478-3.184 6.875-5.969.802-1.599 1.142-3.31 1.125-5.093-.002-.205-.046-.421-.063-.625.01-.001-.002-.018 0-.032-.001-.01.002-.021 0-.031-.001-.012.012-.032 0-.031-.021-.173-.03-.36-.062-.531a13.432 13.432 0 0 0-.25-1.125c-.57-2.03-1.767-3.779-3.344-5.156-.112-.098-.213-.211-.344-.282-.977-.527-1.905-1.084-2.906-1.562-1.332-.637-3.362-.602-4.563-.688-.742-.053-1.505-.121-2.25-.062-.084.006.335.04.25.031-2.761-.309-5.564-.508-8.343-.344-5.005.296-9.835 1.378-14.719 2.438-3.622.786-7.367 1.559-11.094 1.531a10.491 10.491 0 0 1-2.968-.438c-1.646-1.466-3.148-3.054-4.782-4.531-.018-2.35-.053-4.68-.062-7.031-.019-5.553-4.541-10.05-10.094-10.031Z"/><path fill="#fff" d="M228.101 189.019c-3.841 2.392-8.125 4.003-12.316 5.709-1.456.592-4.253 1.371-4.472 1.038-.383-.581.653-1.23.979-1.845"/><path fill="#150b14" d="M226.688 179.062a10.138 10.138 0 0 0-3.782 1.344c-2.459 1.463-5.058 2.463-7.75 3.406-4.281-1.207-9.021.274-11.656 4.157-.291.35-.612.729-.812 1.031-.275.412-.565.837-.782 1.281-.3.616-.601 1.245-.781 1.907-.248.908-.457 1.839-.469 2.781-.015 1.198.03 2.425.406 3.562.471 1.423.997 2.917 2.063 3.969 1.565 1.544 3.567 2.639 5.563 3.562.896.415 1.951.311 2.937.376 1.314.085 2.763-.269 4.031-.594 2.906-.745 5.579-2.039 8.282-3.313 3.179-1.499 6.337-3.08 9.343-4.906 4.758-2.864 6.302-9.024 3.438-13.781a10.056 10.056 0 0 0-10.031-4.782ZM107.5 268.781a4.55 4.55 0 0 0-4.375 4.719c.109.578.254 1.484.469 2.031.548 1.396 1.496 2.595 2.344 3.813 1.201 1.726 2.465 3.41 3.843 5 .104-1.989.283-3.955.844-5.875.358-1.226.95-2.371 1.313-3.594.118-.4.228-1.319.281-1.719a4.55 4.55 0 0 0-4.719-4.375Z"/><path fill="#150b14" d="M117.281 273c-.768.274-1.597.47-2.312.875-1.346.762-2.658 1.694-3.938 2.563-1.66 1.126-3.202 2.269-4.437 3.874-.817 1.062-1.108 2.595-1.344 3.876a4.52 4.52 0 0 0 4.125 4.906c2.504.21 4.727-1.652 4.937-4.156-.071-.768-.251-1.578-.25-2.344.006-2.239.716-4.323 1.469-6.406.194-.536.357-1.157.657-1.657.32-.534.739-1.02 1.093-1.531Z"/><path fill="#150b14" d="M106.906 275.219c-1.092 2.329-1.192 2.573-1.094 2.312.14-.368.547-1.479.376-1.125a13.085 13.085 0 0 0-.719 1.875c-.082.267-.75 1.594-.75 1.594s.489.847.875 1.5c.257.62.558 1.239.906 1.813.204.336-.011 0 .844 1.124 2.51-.118 4.462-2.271 4.344-4.781-.119-2.51-2.272-4.431-4.782-4.312Zm65-125.344a10.028 10.028 0 0 0-7.062 3.063c-3.871 3.981-3.794 10.347.187 14.218 5.036 4.931 9.105 10.677 13.875 15.844a69.2 69.2 0 0 0 9.313 8.406c4.714 3.49 11.354 2.496 14.843-2.218 3.49-4.715 2.496-11.355-2.218-14.844-8.307-6.032-14.447-14.537-21.782-21.625a10.033 10.033 0 0 0-7.156-2.844Z"/></g></svg>